<svg width="34" height="33" viewBox="0 0 34 33" fill="none" xmlns="http://www.w3.org/2000/svg">
<path d="M11.4855 0.485352C12.4371 0.485352 13.3498 0.863383 14.0227 1.53628C14.6956 2.20918 15.0736 3.12183 15.0736 4.07346V14.8378C15.0736 15.7894 14.6956 16.7021 14.0227 17.375C13.3498 18.0479 12.4371 18.4259 11.4855 18.4259H4.3093C3.35767 18.4259 2.44502 18.0479 1.77212 17.375C1.09922 16.7021 0.721191 15.7894 0.721191 14.8378V4.07346C0.721191 3.12183 1.09922 2.20918 1.77212 1.53628C2.44502 0.863383 3.35767 0.485352 4.3093 0.485352H11.4855ZM11.4855 22.014C12.4371 22.014 13.3498 22.392 14.0227 23.0649C14.6956 23.7378 15.0736 24.6505 15.0736 25.6021V29.1902C15.0736 30.1418 14.6956 31.0545 14.0227 31.7274C13.3498 32.4003 12.4371 32.7783 11.4855 32.7783H4.3093C3.35767 32.7783 2.44502 32.4003 1.77212 31.7274C1.09922 31.0545 0.721191 30.1418 0.721191 29.1902V25.6021C0.721191 24.6505 1.09922 23.7378 1.77212 23.0649C2.44502 22.392 3.35767 22.014 4.3093 22.014H11.4855ZM29.4261 14.8378C30.3777 14.8378 31.2903 15.2158 31.9632 15.8887C32.6361 16.5616 33.0142 17.4743 33.0142 18.4259V29.1902C33.0142 30.1418 32.6361 31.0545 31.9632 31.7274C31.2903 32.4003 30.3777 32.7783 29.4261 32.7783H22.2498C21.2982 32.7783 20.3856 32.4003 19.7127 31.7274C19.0398 31.0545 18.6617 30.1418 18.6617 29.1902V18.4259C18.6617 17.4743 19.0398 16.5616 19.7127 15.8887C20.3856 15.2158 21.2982 14.8378 22.2498 14.8378H29.4261ZM29.4261 0.485352C30.3777 0.485352 31.2903 0.863383 31.9632 1.53628C32.6361 2.20918 33.0142 3.12183 33.0142 4.07346V7.66157C33.0142 8.61319 32.6361 9.52584 31.9632 10.1987C31.2903 10.8716 30.3777 11.2497 29.4261 11.2497H22.2498C21.2982 11.2497 20.3856 10.8716 19.7127 10.1987C19.0398 9.52584 18.6617 8.61319 18.6617 7.66157V4.07346C18.6617 3.12183 19.0398 2.20918 19.7127 1.53628C20.3856 0.863383 21.2982 0.485352 22.2498 0.485352H29.4261Z" fill="white"/>
</svg>
