<svg width="25" height="34" viewBox="0 0 25 34" fill="none" xmlns="http://www.w3.org/2000/svg">
<path d="M14.2409 15.9056V0.464844L24.2349 18.7872L17.5722 28.7812H7.57819L0.915527 18.7872L10.9095 0.464844V15.9056C10.2744 16.2722 9.77808 16.8382 9.49744 17.5157C9.21681 18.1933 9.16757 18.9445 9.35737 19.6528C9.54718 20.3612 9.96541 20.9871 10.5472 21.4335C11.129 21.8799 11.8419 22.1219 12.5752 22.1219C13.3085 22.1219 14.0214 21.8799 14.6032 21.4335C15.185 20.9871 15.6032 20.3612 15.793 19.6528C15.9828 18.9445 15.9336 18.1933 15.6529 17.5157C15.3723 16.8382 14.876 16.2722 14.2409 15.9056ZM5.91253 30.4468H19.2379V33.7782H5.91253V30.4468Z" fill="white"/>
</svg>
