<svg width="33" height="33" viewBox="0 0 33 33" fill="none" xmlns="http://www.w3.org/2000/svg">
<path fill-rule="evenodd" clip-rule="evenodd" d="M0.561523 3.94853C0.561523 3.03004 0.926393 2.14916 1.57586 1.49969C2.22534 0.850221 3.10621 0.485352 4.0247 0.485352L29.4213 0.485352C30.3398 0.485352 31.2207 0.850221 31.8702 1.49969C32.5196 2.14916 32.8845 3.03004 32.8845 3.94853V7.41171C32.8845 8.3302 32.5196 9.21107 31.8702 9.86054C31.2207 10.51 30.3398 10.8749 29.4213 10.8749H4.0247C3.10621 10.8749 2.22534 10.51 1.57586 9.86054C0.926393 9.21107 0.561523 8.3302 0.561523 7.41171L0.561523 3.94853ZM0.561523 17.8012C0.561523 16.8827 0.926393 16.0019 1.57586 15.3524C2.22534 14.7029 3.10621 14.3381 4.0247 14.3381H29.4213C30.3398 14.3381 31.2207 14.7029 31.8702 15.3524C32.5196 16.0019 32.8845 16.8827 32.8845 17.8012V21.2644C32.8845 22.1829 32.5196 23.0638 31.8702 23.7132C31.2207 24.3627 30.3398 24.7276 29.4213 24.7276H18.4546V29.3151H28.2669C28.7262 29.3151 29.1666 29.4976 29.4914 29.8223C29.8161 30.147 29.9985 30.5875 29.9985 31.0467C29.9985 31.506 29.8161 31.9464 29.4914 32.2711C29.1666 32.5959 28.7262 32.7783 28.2669 32.7783H5.17909C4.71985 32.7783 4.27941 32.5959 3.95467 32.2711C3.62994 31.9464 3.4475 31.506 3.4475 31.0467C3.4475 30.5875 3.62994 30.147 3.95467 29.8223C4.27941 29.4976 4.71985 29.3151 5.17909 29.3151H14.9914V24.7276H4.0247C3.10621 24.7276 2.22534 24.3627 1.57586 23.7132C0.926393 23.0638 0.561523 22.1829 0.561523 21.2644L0.561523 17.8012ZM8.64227 5.68012C8.64227 5.90751 8.59748 6.13268 8.51046 6.34277C8.42344 6.55285 8.29589 6.74374 8.1351 6.90453C7.97431 7.06533 7.78342 7.19288 7.57333 7.2799C7.36324 7.36692 7.13808 7.41171 6.91068 7.41171C6.68329 7.41171 6.45812 7.36692 6.24803 7.2799C6.03794 7.19288 5.84706 7.06533 5.68626 6.90453C5.52547 6.74374 5.39792 6.55285 5.3109 6.34277C5.22388 6.13268 5.17909 5.90751 5.17909 5.68012C5.17909 5.22087 5.36153 4.78043 5.68626 4.4557C6.011 4.13096 6.45143 3.94853 6.91068 3.94853C7.36993 3.94853 7.81036 4.13096 8.1351 4.4557C8.45983 4.78043 8.64227 5.22087 8.64227 5.68012ZM18.6393 4.23713C18.2566 4.23713 17.8896 4.38916 17.619 4.65977C17.3483 4.93038 17.1963 5.29741 17.1963 5.68012C17.1963 6.06282 17.3483 6.42985 17.619 6.70046C17.8896 6.97108 18.2566 7.12311 18.6393 7.12311H25.9582C26.3409 7.12311 26.7079 6.97108 26.9785 6.70046C27.2491 6.42985 27.4011 6.06282 27.4011 5.68012C27.4011 5.29741 27.2491 4.93038 26.9785 4.65977C26.7079 4.38916 26.3409 4.23713 25.9582 4.23713H18.6393ZM8.64227 19.5328C8.64227 19.7602 8.59748 19.9854 8.51046 20.1955C8.42344 20.4056 8.29589 20.5964 8.1351 20.7572C7.97431 20.918 7.78342 21.0456 7.57333 21.1326C7.36324 21.2196 7.13808 21.2644 6.91068 21.2644C6.68329 21.2644 6.45812 21.2196 6.24803 21.1326C6.03794 21.0456 5.84706 20.918 5.68626 20.7572C5.52547 20.5964 5.39792 20.4056 5.3109 20.1955C5.22388 19.9854 5.17909 19.7602 5.17909 19.5328C5.17909 19.0736 5.36153 18.6331 5.68626 18.3084C6.011 17.9837 6.45143 17.8012 6.91068 17.8012C7.36993 17.8012 7.81036 17.9837 8.1351 18.3084C8.45983 18.6331 8.64227 19.0736 8.64227 19.5328ZM17.1986 19.5328C17.1986 18.7363 17.8451 18.0898 18.6416 18.0898H25.9582C26.3409 18.0898 26.7079 18.2419 26.9785 18.5125C27.2491 18.7831 27.4011 19.1501 27.4011 19.5328C27.4011 19.9155 27.2491 20.2826 26.9785 20.5532C26.7079 20.8238 26.3409 20.9758 25.9582 20.9758H18.6393C18.257 20.9752 17.8906 20.8229 17.6205 20.5524C17.3503 20.2818 17.1986 19.9151 17.1986 19.5328Z" fill="white"/>
</svg>
