<svg width="32" height="31" viewBox="0 0 32 31" fill="none" xmlns="http://www.w3.org/2000/svg">
<path fill-rule="evenodd" clip-rule="evenodd" d="M5.30456 4.85388V19.1722H14.9904V4.85388H5.30456ZM27.3328 15.6763L23.8237 12.6519C23.282 12.2022 22.6002 11.9561 21.8962 11.9561C21.1922 11.9561 20.5104 12.2022 19.9687 12.6519L18.0303 14.2159C17.9587 14.2516 17.8971 14.3045 17.851 14.3699C17.8049 14.4352 17.7757 14.511 17.7659 14.5903V19.1722H27.3328V15.6763ZM0.898926 3.65775C0.898926 1.88448 2.33516 0.448242 4.10843 0.448242H28.5289C30.3022 0.448242 31.7384 1.88448 31.7384 3.65775V20.3683C31.7384 22.1416 30.3022 23.5778 28.5289 23.5778H19.6603L20.8388 26.8711H22.9271C23.3653 26.8711 23.7855 27.0451 24.0953 27.355C24.4052 27.6648 24.5792 28.085 24.5792 28.5232C24.5792 28.9613 24.4052 29.3816 24.0953 29.6914C23.7855 30.0012 23.3653 30.1753 22.9271 30.1753H9.7102C9.27204 30.1753 8.85181 30.0012 8.54198 29.6914C8.23215 29.3816 8.05809 28.9613 8.05809 28.5232C8.05809 28.085 8.23215 27.6648 8.54198 27.355C8.85181 27.0451 9.27204 26.8711 9.7102 26.8711H11.7985L12.977 23.5778H4.10843C3.68696 23.5778 3.2696 23.4948 2.88021 23.3335C2.49081 23.1722 2.137 22.9358 1.83897 22.6378C1.54094 22.3398 1.30453 21.986 1.14324 21.5966C0.981942 21.2072 0.898926 20.7898 0.898926 20.3683L0.898926 3.65775ZM11.4196 7.87174H7.56466C7.1966 7.87174 6.84361 8.01796 6.58335 8.27821C6.32309 8.53847 6.17688 8.89146 6.17688 9.25952C6.17688 9.62758 6.32309 9.98057 6.58335 10.2408C6.84361 10.5011 7.1966 10.6473 7.56466 10.6473H11.4196C11.7877 10.6473 12.1406 10.5011 12.4009 10.2408C12.6612 9.98057 12.8074 9.62758 12.8074 9.25952C12.8074 8.89146 12.6612 8.53847 12.4009 8.27821C12.1406 8.01796 11.7877 7.87174 11.4196 7.87174ZM7.56466 13.3788H9.76748C10.1355 13.3788 10.4885 13.525 10.7488 13.7853C11.009 14.0455 11.1553 14.3985 11.1553 14.7666C11.1553 15.1346 11.009 15.4876 10.7488 15.7479C10.4885 16.0081 10.1355 16.1543 9.76748 16.1543H7.56466C7.1966 16.1543 6.84361 16.0081 6.58335 15.7479C6.32309 15.4876 6.17688 15.1346 6.17688 14.7666C6.17688 14.3985 6.32309 14.0455 6.58335 13.7853C6.84361 13.525 7.1966 13.3788 7.56466 13.3788Z" fill="white"/>
</svg>
