<svg width="27" height="33" viewBox="0 0 27 33" fill="none" xmlns="http://www.w3.org/2000/svg">
<path fill-rule="evenodd" clip-rule="evenodd" d="M8.04655 3.18646C8.04655 2.59505 8.28148 2.02786 8.69967 1.60967C9.11786 1.19148 9.68505 0.956543 10.2765 0.956543L16.9662 0.956543C17.5576 0.956543 18.1248 1.19148 18.543 1.60967C18.9612 2.02786 19.1961 2.59505 19.1961 3.18646V4.30142C19.1961 4.89283 18.9612 5.46002 18.543 5.87821C18.1248 6.2964 17.5576 6.53133 16.9662 6.53133H10.2765C9.68505 6.53133 9.11786 6.2964 8.69967 5.87821C8.28148 5.46002 8.04655 4.89283 8.04655 4.30142V3.18646ZM21.9835 3.18646H23.0985C23.9856 3.18646 24.8364 3.53887 25.4637 4.16615C26.091 4.79344 26.4434 5.64422 26.4434 6.53133V28.8305C26.4434 29.7176 26.091 30.5684 25.4637 31.1957C24.8364 31.823 23.9856 32.1754 23.0985 32.1754H4.14419C3.25708 32.1754 2.40629 31.823 1.77901 31.1957C1.15172 30.5684 0.799316 29.7176 0.799316 28.8305V6.53133C0.799316 5.64422 1.15172 4.79344 1.77901 4.16615C2.40629 3.53887 3.25708 3.18646 4.14419 3.18646H5.25915V4.30142C5.25915 5.63209 5.78776 6.90827 6.72869 7.84919C7.66962 8.79012 8.94579 9.31873 10.2765 9.31873H16.9662C18.2969 9.31873 19.5731 8.79012 20.514 7.84919C21.4549 6.90827 21.9835 5.63209 21.9835 4.30142V3.18646ZM11.3245 14.2201C11.3245 13.7362 11.717 13.346 12.2009 13.346H15.044C15.5257 13.346 15.9182 13.7362 15.9182 14.2201V17.6988H19.3968C19.8807 17.6988 20.271 18.0912 20.271 18.5751V21.4183C20.2715 21.5332 20.2493 21.6471 20.2056 21.7535C20.1619 21.8598 20.0975 21.9564 20.0162 22.0377C19.935 22.119 19.8384 22.1833 19.732 22.2271C19.6257 22.2708 19.5118 22.293 19.3968 22.2924H15.9182V25.7711C15.919 25.8862 15.8971 26.0004 15.8535 26.107C15.8099 26.2135 15.7456 26.3104 15.6642 26.3919C15.5829 26.4734 15.4862 26.538 15.3798 26.5819C15.2733 26.6257 15.1592 26.648 15.044 26.6474H12.1987C12.0835 26.648 11.9694 26.6257 11.8629 26.5819C11.7565 26.538 11.6598 26.4734 11.5784 26.3919C11.4971 26.3104 11.4328 26.2135 11.3892 26.107C11.3456 26.0004 11.3236 25.8862 11.3245 25.7711V22.2924H7.84585C7.7309 22.293 7.61696 22.2708 7.51064 22.2271C7.40432 22.1833 7.30772 22.119 7.22643 22.0377C7.14515 21.9564 7.08078 21.8598 7.03706 21.7535C6.99334 21.6471 6.97114 21.5332 6.97173 21.4183V18.5729C6.97173 18.089 7.36196 17.6965 7.84585 17.6965H11.3245V14.2201Z" fill="white"/>
</svg>
