<svg width="33" height="31" viewBox="0 0 33 31" fill="none" xmlns="http://www.w3.org/2000/svg">
<path d="M23.6888 7.42499L20.0256 5.7682L23.6888 4.11141L25.3456 0.448242L27.0024 4.11141L30.6656 5.7682L27.0024 7.42499L25.3456 11.0882L23.6888 7.42499ZM29.5712 16.7425L28.3856 14.1281L27.2 16.7425L24.5856 17.9281L27.2 19.1137L28.3856 21.7281L29.5712 19.1137L32.1855 17.9281L29.5712 16.7425ZM21.9104 19.2505L24.8592 21.4849L21.0592 28.0664L17.6545 26.6376C17.3505 26.8352 17.0161 27.0328 16.6817 27.2L16.2257 30.848H8.62572L8.16973 27.1848C7.83533 27.0176 7.51613 26.8352 7.19693 26.6224L3.79216 28.0512L-0.0078125 21.4697L2.94097 19.2353C2.92577 19.0681 2.92577 18.8705 2.92577 18.6881C2.92577 18.5057 2.92577 18.3081 2.94097 18.1257L-0.0078125 15.8913L3.79216 9.30978L7.19693 10.7386C7.50093 10.541 7.83533 10.3434 8.16973 10.1762L8.62572 6.5282H16.2257L16.6817 10.1914C17.0161 10.3586 17.3353 10.541 17.6545 10.7538L21.0592 9.32498L24.8592 15.9065L21.9104 18.1409C21.9256 18.3233 21.9256 18.5057 21.9256 18.7033C21.9256 18.9009 21.9256 19.0681 21.9104 19.2505ZM16.9857 18.6881C16.9857 16.1649 14.9489 14.1281 12.4257 14.1281C9.90251 14.1281 7.86573 16.1649 7.86573 18.6881C7.86573 21.2113 9.90251 23.2481 12.4257 23.2481C14.9489 23.2481 16.9857 21.2113 16.9857 18.6881Z" fill="white"/>
</svg>
